# xmcd
#
# Track frame offsets:
#	150
#	13868
#	29807
#	41642
#	53542
#	69716
#	88879
#	102173
#	114127
#	124709
#	152067
#
# Disc length: 2913 seconds
#
# Revision: 0
# Processed by: cddbd v1.5PL3 Copyright (c) Steve Scherf et al.
# Submitted via: dBpowerAMP V4.0
#
DISCID=8e0b5f0b
DTITLE=Billy Hoffman - New Style
DYEAR=1900
DGENRE=Country
TTITLE0=Found A Way
TTITLE1=She's Gone
TTITLE2=New Style
TTITLE3=Long Night In Tulsa
TTITLE4=Can't Have It All
TTITLE5=Just In My Mind
TTITLE6=Do A Little Time
TTITLE7=Mama Never Told me
TTITLE8=Big Dawg
TTITLE9=Will She Remember
TTITLE10=DATA
EXTD=Billy Hoffman  "New Style" is an "enhanced cd"
EXTT0=
EXTT1=
EXTT2=
EXTT3=
EXTT4=
EXTT5=
EXTT6=
EXTT7=
EXTT8=
EXTT9=
EXTT10=
PLAYORDER=
